{
  "accessors": [
    {
      "bufferView": 2,
      "componentType": 5126,
      "count": 36456,
      "max": [
        66.7403793334961,
        69.78530883789063,
        55.800025939941406
      ],
      "min": [
        -67.86294555664063,
        16.359834671020508,
        -55.79917907714844
      ],
      "type": "VEC3"
    },
    {
      "bufferView": 2,
      "byteOffset": 437472,
      "componentType": 5126,
      "count": 36456,
      "max": [
        0.9964678883552551,
        0.9999409317970276,
        0.9999158978462219
      ],
      "min": [
        -0.9985354542732239,
        -0.9999721646308899,
        -0.9999158978462219
      ],
      "type": "VEC3"
    },
    {
      "bufferView": 1,
      "componentType": 5126,
      "count": 36456,
      "max": [
        1.0000088214874268,
        1.0
      ],
      "min": [
        -1.4785128996663843e-06,
        0.0
      ],
      "type": "VEC2"
    },
    {
      "bufferView": 0,
      "componentType": 5125,
      "count": 181860,
      "type": "SCALAR"
    }
  ],
  "asset": {
    "extras": {
      "author": "andrianomenjanaharyherysetra (https://sketchfab.com/andrianomenjanaharyherysetra)",
      "license": "CC-BY-4.0 (http://creativecommons.org/licenses/by/4.0/)",
      "source": "https://sketchfab.com/3d-models/noodle-4326312c19a74e33bcf00dc1fc5e6928",
      "title": "Noodle"
    },
    "generator": "Sketchfab-16.29.0",
    "version": "2.0"
  },
  "bufferViews": [
    {
      "buffer": 0,
      "byteLength": 727440,
      "name": "floatBufferViews",
      "target": 34963
    },
    {
      "buffer": 0,
      "byteLength": 291648,
      "byteOffset": 727440,
      "byteStride": 8,
      "name": "floatBufferViews",
      "target": 34962
    },
    {
      "buffer": 0,
      "byteLength": 874944,
      "byteOffset": 1019088,
      "byteStride": 12,
      "name": "floatBufferViews",
      "target": 34962
    }
  ],
  "buffers": [
    {
      "byteLength": 1894032,
      "uri": "scene.bin"
    }
  ],
  "materials": [
    {
      "doubleSided": true,
      "name": "liteyellow",
      "pbrMetallicRoughness": {
        "baseColorFactor": [
          0.8,
          0.572497,
          0.217669,
          1.0
        ],
        "metallicFactor": 0.0,
        "roughnessFactor": 0.9011837771574399
      }
    }
  ],
  "meshes": [
    {
      "name": "Plane.003_liteyellow_0",
      "primitives": [
        {
          "attributes": {
            "NORMAL": 1,
            "POSITION": 0,
            "TEXCOORD_0": 2
          },
          "indices": 3,
          "material": 0,
          "mode": 4
        }
      ]
    }
  ],
  "nodes": [
    {
      "children": [
        1
      ],
      "matrix": [
        1.0,
        0.0,
        0.0,
        0.0,
        0.0,
        2.220446049250313e-16,
        -1.0,
        0.0,
        0.0,
        1.0,
        2.220446049250313e-16,
        0.0,
        0.0,
        0.0,
        0.0,
        1.0
      ],
      "name": "Sketchfab_model"
    },
    {
      "children": [
        2
      ],
      "matrix": [
        0.009999999776482582,
        0.0,
        0.0,
        0.0,
        0.0,
        0.0,
        0.009999999776482582,
        0.0,
        0.0,
        -0.009999999776482582,
        0.0,
        0.0,
        0.0,
        0.0,
        0.0,
        1.0
      ],
      "name": "47fec6eec2b34a8ab0a9cbc1ed2b8b13.fbx"
    },
    {
      "children": [
        3
      ],
      "name": "RootNode"
    },
    {
      "children": [
        4
      ],
      "name": "Plane.003"
    },
    {
      "mesh": 0,
      "name": "Plane.003_liteyellow_0"
    }
  ],
  "scene": 0,
  "scenes": [
    {
      "name": "Sketchfab_Scene",
      "nodes": [
        0
      ]
    }
  ]
}
