{
  "accessors": [
    {
      "bufferView": 2,
      "componentType": 5126,
      "count": 65532,
      "max": [
        0.33656182885169983,
        0.30363866686820984,
        0.9496075510978699
      ],
      "min": [
        -0.3342004716396332,
        0.0,
        -0.9483368992805481
      ],
      "type": "VEC3"
    },
    {
      "bufferView": 2,
      "byteOffset": 786384,
      "componentType": 5126,
      "count": 65532,
      "max": [
        0.999984860420227,
        0.9999845027923584,
        0.9999825954437256
      ],
      "min": [
        -0.9999746084213257,
        -0.9999980926513672,
        -0.9999806880950928
      ],
      "type": "VEC3"
    },
    {
      "bufferView": 3,
      "componentType": 5126,
      "count": 65532,
      "max": [
        1.0,
        0.9999934434890747,
        1.0,
        1.0
      ],
      "min": [
        -0.9999972581863403,
        -0.9999973773956299,
        -0.9999891519546509,
        -1.0
      ],
      "type": "VEC4"
    },
    {
      "bufferView": 1,
      "componentType": 5126,
      "count": 65532,
      "max": [
        1.0,
        1.0
      ],
      "min": [
        0.0,
        0.0
      ],
      "type": "VEC2"
    },
    {
      "bufferView": 1,
      "byteOffset": 524256,
      "componentType": 5126,
      "count": 65532,
      "max": [
        1.0,
        1.0
      ],
      "min": [
        0.0,
        0.0
      ],
      "type": "VEC2"
    },
    {
      "bufferView": 1,
      "byteOffset": 1048512,
      "componentType": 5126,
      "count": 65532,
      "max": [
        1.0,
        1.0
      ],
      "min": [
        0.0,
        0.0
      ],
      "type": "VEC2"
    },
    {
      "bufferView": 1,
      "byteOffset": 1572768,
      "componentType": 5126,
      "count": 65532,
      "max": [
        1.0,
        1.0
      ],
      "min": [
        0.0,
        0.0
      ],
      "type": "VEC2"
    },
    {
      "bufferView": 0,
      "componentType": 5125,
      "count": 303963,
      "type": "SCALAR"
    },
    {
      "bufferView": 2,
      "byteOffset": 1572768,
      "componentType": 5126,
      "count": 11527,
      "max": [
        0.325440376996994,
        0.27073773741722107,
        0.2886924147605896
      ],
      "min": [
        -0.2802151143550873,
        0.019810080528259277,
        -0.491546630859375
      ],
      "type": "VEC3"
    },
    {
      "bufferView": 2,
      "byteOffset": 1711092,
      "componentType": 5126,
      "count": 11527,
      "max": [
        0.8572933673858643,
        0.9999746084213257,
        0.9917392134666443
      ],
      "min": [
        -0.9849311113357544,
        -0.9117294549942017,
        -0.9999004006385803
      ],
      "type": "VEC3"
    },
    {
      "bufferView": 3,
      "byteOffset": 1048512,
      "componentType": 5126,
      "count": 11527,
      "max": [
        1.0,
        0.9749478697776794,
        0.9999974966049194,
        1.0
      ],
      "min": [
        -0.9863103628158569,
        -0.9998158812522888,
        -0.9669840931892395,
        -1.0
      ],
      "type": "VEC4"
    },
    {
      "bufferView": 1,
      "byteOffset": 2097024,
      "componentType": 5126,
      "count": 11527,
      "max": [
        0.937729001045227,
        1.0
      ],
      "min": [
        0.002686202758923173,
        0.0002442002296447754
      ],
      "type": "VEC2"
    },
    {
      "bufferView": 1,
      "byteOffset": 2189240,
      "componentType": 5126,
      "count": 11527,
      "max": [
        0.937729001045227,
        1.0
      ],
      "min": [
        0.002686202758923173,
        0.0002442002296447754
      ],
      "type": "VEC2"
    },
    {
      "bufferView": 1,
      "byteOffset": 2281456,
      "componentType": 5126,
      "count": 11527,
      "max": [
        0.937729001045227,
        1.0
      ],
      "min": [
        0.002686202758923173,
        0.0002442002296447754
      ],
      "type": "VEC2"
    },
    {
      "bufferView": 1,
      "byteOffset": 2373672,
      "componentType": 5126,
      "count": 11527,
      "max": [
        0.937729001045227,
        1.0
      ],
      "min": [
        0.002686202758923173,
        0.0002442002296447754
      ],
      "type": "VEC2"
    },
    {
      "bufferView": 0,
      "byteOffset": 1215852,
      "componentType": 5125,
      "count": 56037,
      "type": "SCALAR"
    }
  ],
  "asset": {
    "extras": {
      "author": "-PromptPlay- (https://sketchfab.com/-PromptPlay-)",
      "license": "CC-BY-4.0 (http://creativecommons.org/licenses/by/4.0/)",
      "source": "https://sketchfab.com/3d-models/grilled-chicken-wing-skewer-b93cea7a86d24448b4e6b7133a869698",
      "title": "Grilled Chicken Wing Skewer"
    },
    "generator": "Sketchfab-16.72.0",
    "version": "2.0"
  },
  "bufferViews": [
    {
      "buffer": 0,
      "byteLength": 1440000,
      "name": "floatBufferViews",
      "target": 34963
    },
    {
      "buffer": 0,
      "byteLength": 2465888,
      "byteOffset": 1440000,
      "byteStride": 8,
      "name": "floatBufferViews",
      "target": 34962
    },
    {
      "buffer": 0,
      "byteLength": 1849416,
      "byteOffset": 3905888,
      "byteStride": 12,
      "name": "floatBufferViews",
      "target": 34962
    },
    {
      "buffer": 0,
      "byteLength": 1232944,
      "byteOffset": 5755304,
      "byteStride": 16,
      "name": "floatBufferViews",
      "target": 34962
    }
  ],
  "buffers": [
    {
      "byteLength": 6988248,
      "uri": "scene.bin"
    }
  ],
  "images": [
    {
      "uri": "textures/CustomMaterial_baseColor.png"
    },
    {
      "uri": "textures/CustomMaterial_metallicRoughness.png"
    },
    {
      "uri": "textures/CustomMaterial_normal.png"
    }
  ],
  "materials": [
    {
      "doubleSided": true,
      "name": "CustomMaterial",
      "normalTexture": {
        "index": 2,
        "texCoord": 2
      },
      "pbrMetallicRoughness": {
        "baseColorTexture": {
          "index": 0
        },
        "metallicRoughnessTexture": {
          "index": 1,
          "texCoord": 1
        }
      }
    }
  ],
  "meshes": [
    {
      "name": "Object_0",
      "primitives": [
        {
          "attributes": {
            "NORMAL": 1,
            "POSITION": 0,
            "TANGENT": 2,
            "TEXCOORD_0": 3,
            "TEXCOORD_1": 4,
            "TEXCOORD_2": 5,
            "TEXCOORD_3": 6
          },
          "indices": 7,
          "material": 0,
          "mode": 4
        }
      ]
    },
    {
      "name": "Object_1",
      "primitives": [
        {
          "attributes": {
            "NORMAL": 9,
            "POSITION": 8,
            "TANGENT": 10,
            "TEXCOORD_0": 11,
            "TEXCOORD_1": 12,
            "TEXCOORD_2": 13,
            "TEXCOORD_3": 14
          },
          "indices": 15,
          "material": 0,
          "mode": 4
        }
      ]
    }
  ],
  "nodes": [
    {
      "children": [
        1
      ],
      "matrix": [
        1.0,
        0.0,
        0.0,
        0.0,
        0.0,
        2.220446049250313e-16,
        -1.0,
        0.0,
        0.0,
        1.0,
        2.220446049250313e-16,
        0.0,
        0.0,
        0.0,
        0.0,
        1.0
      ],
      "name": "Sketchfab_model"
    },
    {
      "children": [
        2
      ],
      "name": "root"
    },
    {
      "children": [
        3
      ],
      "matrix": [
        1.0,
        0.0,
        0.0,
        0.0,
        0.0,
        2.220446049250313e-16,
        1.0,
        0.0,
        0.0,
        -1.0,
        2.220446049250313e-16,
        0.0,
        0.0,
        0.0,
        0.0,
        1.0
      ],
      "name": "GLTF_SceneRootNode"
    },
    {
      "children": [
        4,
        5
      ],
      "name": "geometry_0_0"
    },
    {
      "mesh": 0,
      "name": "Object_4"
    },
    {
      "mesh": 1,
      "name": "Object_5"
    }
  ],
  "samplers": [
    {
      "magFilter": 9729,
      "minFilter": 9987,
      "wrapS": 10497,
      "wrapT": 10497
    }
  ],
  "scene": 0,
  "scenes": [
    {
      "name": "Sketchfab_Scene",
      "nodes": [
        0
      ]
    }
  ],
  "textures": [
    {
      "sampler": 0,
      "source": 0
    },
    {
      "sampler": 0,
      "source": 1
    },
    {
      "sampler": 0,
      "source": 2
    }
  ]
}
